<svg version="1.2" xmlns="http://www.w3.org/2000/svg" viewBox="0 0 79 80" width="128" height="128">
	<title>Adblock_logo_&amp;_wordmark</title>
	<style>
		.s0 { fill: #f40d12 } 
		.s1 { fill: #ffffff } 
	</style>
	<g id="Symbols">
		<g id="logo/full/core">
			<g id="core-logo-full">
				<g id="icon">
					<path id="octagon" fill-rule="evenodd" class="s0" d="m21.4 1.7l-19.7 19.7c-1.1 1.1-1.7 2.6-1.7 4.2v27.8c0 1.6 0.6 3.1 1.7 4.2l19.7 19.7c1.1 1.1 2.6 1.7 4.2 1.7h27.8c1.6 0 3.1-0.6 4.2-1.7l19.7-19.7c1.1-1.1 1.7-2.6 1.7-4.2v-27.8c0-1.6-0.6-3.1-1.7-4.2l-19.7-19.7c-1.1-1.1-2.6-1.7-4.2-1.7h-27.8c-1.6 0-3.1 0.6-4.2 1.7z"/>
					<path id="Hand" fill-rule="evenodd" class="s1" d="m38.6 68.1c13.1 0 16.2-12 16.2-12l7.5-21.5c0 0 0.7-2.3 0.5-2.3-7-1.3-8.5 3.6-8.5 3.6 0 0-2.6 7-3.1 7-0.4 0-0.4-0.5-0.4-0.5v-25.1c0 0 0.1-3.2-3.2-3.2-3.3 0-3.2 3.2-3.2 3.2v18.5c0 0 0.1 0.8-0.6 0.8-0.5 0-0.5-0.7-0.5-0.7v-22.4c0 0 0.2-3.6-3.1-3.6-3.4 0-3.2 3.6-3.2 3.6v22.1c0 0 0 0.7-0.6 0.7-0.5 0-0.4-0.7-0.4-0.7v-18.5c0 0 0.1-3.7-3.3-3.7-3.3 0-3.2 3.8-3.2 3.8v19.5c0 0 0.1 0.6-0.5 0.6-0.5 0-0.5-0.6-0.5-0.6v-11.8c0 0 0-3.3-2.8-3.3-3 0-3 3.3-3 3.3v25.5c0-0.1-0.7 17.7 15.9 17.7z"/>
				</g>
			</g>
		</g>
	</g>
</svg>